<svg width="16" height="16" viewBox="0 0 16 16" fill="none" xmlns="http://www.w3.org/2000/svg">
<path fill-rule="evenodd" clip-rule="evenodd" d="M8 16C12.4183 16 16 12.4183 16 8C16 3.58172 12.4183 0 8 0C3.58172 0 0 3.58172 0 8C0 12.4183 3.58172 16 8 16ZM8.76235 11.4974L9.49935 11.7079V12.4999H6.48535V11.7079L7.22235 11.4974V7.65457L6.48535 7.45092V6.65892L8.76235 6.58192V11.4974ZM7.28835 5.49292C7.45702 5.64692 7.67702 5.72392 7.94835 5.72392C8.20502 5.72392 8.41768 5.65059 8.58635 5.50392C8.76235 5.34992 8.85035 5.12259 8.85035 4.82192C8.85035 4.52126 8.76602 4.29759 8.59735 4.15092C8.42869 3.99692 8.21602 3.91992 7.95935 3.91992C7.69535 3.91992 7.47535 3.99692 7.29935 4.15092C7.13068 4.29759 7.04635 4.52492 7.04635 4.83292C7.04635 5.11892 7.12702 5.33892 7.28835 5.49292Z" fill="#3E3E3E"/>
</svg>
